<?xml version="1.0" standalone="no"?>
<!DOCTYPE svg PUBLIC "-//W3C//DTD SVG 20010904//EN"
 "http://www.w3.org/TR/2001/REC-SVG-20010904/DTD/svg10.dtd">
<svg version="1.0" xmlns="http://www.w3.org/2000/svg"
 width="512.000000pt" height="512.000000pt" viewBox="0 0 512.000000 512.000000"
 preserveAspectRatio="xMidYMid meet">

<g transform="translate(0.000000,512.000000) scale(0.100000,-0.100000)"
fill="#000000" stroke="none">
<path d="M40 4023 c-43 -40 -49 -87 -16 -135 38 -56 2464 -2796 2486 -2808 24
-13 76 -13 100 0 22 12 2449 2754 2487 2809 66 97 -50 207 -145 139 -18 -13
-561 -621 -1207 -1353 -646 -731 -1180 -1330 -1185 -1330 -6 0 -539 599 -1185
1330 -646 732 -1189 1340 -1207 1353 -43 31 -90 29 -128 -5z"/>
</g>
</svg>
