<svg id="레이어_1" data-name="레이어 1" xmlns="http://www.w3.org/2000/svg" viewBox="0 0 96.38 21.44"><defs><style>.cls-1{fill:#fff;}</style></defs><title>-대지 2 사본</title><path class="cls-1" d="M19.28,7.44l-1.91,3.12H17.1L15.19,7.44Zm-2.18,7h.27l1.91,3.13H15.19Z"/><path class="cls-1" d="M28,8.66a2.47,2.47,0,0,0-1.4-.39,2.87,2.87,0,0,0-1,.18,1.68,1.68,0,0,0-.73.49,1.12,1.12,0,0,0-.26.72,1,1,0,0,0,.4.79,2.91,2.91,0,0,0,1.27.53l2,.43a5,5,0,0,1,2.46,1.14,2.76,2.76,0,0,1,.82,2,3.25,3.25,0,0,1-.62,1.93,4,4,0,0,1-1.74,1.32,6.81,6.81,0,0,1-2.62.47A7,7,0,0,1,24,17.88a3.94,3.94,0,0,1-1.71-1.21,3.78,3.78,0,0,1-.77-1.92h2.79A1.61,1.61,0,0,0,25,15.86a2.69,2.69,0,0,0,1.54.36,3.14,3.14,0,0,0,1.15-.16,1.64,1.64,0,0,0,.77-.48,1.17,1.17,0,0,0,.26-.76,1,1,0,0,0-.41-.84A3.16,3.16,0,0,0,27,13.46l-1.88-.39a4.73,4.73,0,0,1-2.46-1.17,2.8,2.8,0,0,1-.83-2.08,3.14,3.14,0,0,1,.58-1.89,3.74,3.74,0,0,1,1.66-1.25,7,7,0,0,1,4.89,0,3.76,3.76,0,0,1,1.61,1.21,3.52,3.52,0,0,1,.68,1.84H28.67A1.7,1.7,0,0,0,28,8.66Z"/><path class="cls-1" d="M35.73,17.54a5,5,0,0,1-1.94-2.12,7,7,0,0,1-.67-3.15,7,7,0,0,1,.69-3.15A5.09,5.09,0,0,1,35.76,7a5.64,5.64,0,0,1,2.94-.76,5.85,5.85,0,0,1,2.52.52A4.22,4.22,0,0,1,43,8.21a4.38,4.38,0,0,1,.74,2.21H41.1a2.55,2.55,0,0,0-.42-1,2.17,2.17,0,0,0-.8-.7,2.39,2.39,0,0,0-1.13-.26,2.49,2.49,0,0,0-1.5.46,3,3,0,0,0-1,1.31,5.17,5.17,0,0,0-.36,2,5.33,5.33,0,0,0,.36,2,3,3,0,0,0,1,1.33,2.5,2.5,0,0,0,1.51.46,2.59,2.59,0,0,0,1.09-.23,2.17,2.17,0,0,0,.82-.68,2.48,2.48,0,0,0,.44-1.06h2.62a4.64,4.64,0,0,1-.73,2.2,4.2,4.2,0,0,1-1.74,1.48,5.64,5.64,0,0,1-2.53.53A5.71,5.71,0,0,1,35.73,17.54Z"/><path class="cls-1" d="M48,17.57a4.91,4.91,0,0,1-2-2.09,6.89,6.89,0,0,1-.69-3.17A7.09,7.09,0,0,1,46,9.12a5.16,5.16,0,0,1,2-2.13,5.52,5.52,0,0,1,2.9-.76,5.78,5.78,0,0,1,2.7.64,4.66,4.66,0,0,1,1.92,2,6.93,6.93,0,0,1,.71,3.29V13H46.59V11.12h6.95a3.12,3.12,0,0,0-.34-1.41,2.42,2.42,0,0,0-.94-1,2.66,2.66,0,0,0-1.39-.35,2.69,2.69,0,0,0-2.49,1.47A3,3,0,0,0,48,11.3v1.6a3.8,3.8,0,0,0,.38,1.75,2.67,2.67,0,0,0,1,1.13,3.09,3.09,0,0,0,1.58.39A3.21,3.21,0,0,0,52.06,16a2.6,2.6,0,0,0,.79-.43,1.92,1.92,0,0,0,.51-.63h2.7a4,4,0,0,1-.94,1.77,4.32,4.32,0,0,1-1.74,1.17A6.52,6.52,0,0,1,51,18.3,6,6,0,0,1,48,17.57Z"/><path class="cls-1" d="M61,18.08H58.31V6.38h2.61v2h.13A3.37,3.37,0,0,1,62.36,6.8a4,4,0,0,1,2.18-.57,4.1,4.1,0,0,1,2.11.52A3.43,3.43,0,0,1,68,8.25a5.32,5.32,0,0,1,.49,2.38v7.45H65.8v-7a3,3,0,0,0-.27-1.34,1.94,1.94,0,0,0-.79-.86,2.37,2.37,0,0,0-1.22-.3,2.63,2.63,0,0,0-1.3.31,2.21,2.21,0,0,0-.87.92A3.12,3.12,0,0,0,61,11.22Z"/><path class="cls-1" d="M77,8.49H70.29V6.38H77Zm-2.29-4.9v11a1.71,1.71,0,0,0,.16.82.83.83,0,0,0,.44.41,1.62,1.62,0,0,0,.66.12h.39l.46,0,.34,0v2.25a9,9,0,0,1-1.55.12,4.67,4.67,0,0,1-1.88-.36,2.88,2.88,0,0,1-1.3-1.08A3.22,3.22,0,0,1,71.94,15V3.59Z"/><path class="cls-1" d="M79.69,4.51A1.58,1.58,0,0,1,79.11,4a1.36,1.36,0,0,1-.21-.74,1.42,1.42,0,0,1,.21-.75,1.58,1.58,0,0,1,.58-.54,1.62,1.62,0,0,1,.79-.19,1.69,1.69,0,0,1,.8.19,1.51,1.51,0,0,1,.58.54,1.34,1.34,0,0,1,.22.75,1.29,1.29,0,0,1-.22.74,1.51,1.51,0,0,1-.58.54,1.58,1.58,0,0,1-.79.21A1.57,1.57,0,0,1,79.69,4.51Zm-.57,1.87h2.74v11.7H79.12Z"/><path class="cls-1" d="M86.61,17.54a4.94,4.94,0,0,1-2-2.12A7,7,0,0,1,84,12.27a7,7,0,0,1,.69-3.15A5.15,5.15,0,0,1,86.63,7a5.71,5.71,0,0,1,3-.76,5.81,5.81,0,0,1,2.51.52,4.31,4.31,0,0,1,1.77,1.46,4.37,4.37,0,0,1,.73,2.21H92a2.7,2.7,0,0,0-.42-1,2.29,2.29,0,0,0-.81-.7,2.39,2.39,0,0,0-1.13-.26,2.49,2.49,0,0,0-1.5.46,2.93,2.93,0,0,0-1,1.31,5.17,5.17,0,0,0-.36,2,5.33,5.33,0,0,0,.35,2,3,3,0,0,0,1,1.33,2.5,2.5,0,0,0,1.51.46,2.64,2.64,0,0,0,1.1-.23,2.25,2.25,0,0,0,.82-.68A2.61,2.61,0,0,0,92,14.09h2.61a4.53,4.53,0,0,1-.73,2.2,4.17,4.17,0,0,1-1.73,1.48,6.28,6.28,0,0,1-5.52-.23Z"/><path class="cls-1" d="M12.45,17c-.25,0-.37-.07-.37-.52V9.74c0-2.16-1.44-3.36-4.4-3.36-1.86,0-5.16.79-5.16,2.82,0,.76.71,1.19,1.49,1.19a2,2,0,0,0,1.45-.54A1.75,1.75,0,0,1,7,7.56,1.92,1.92,0,0,1,9.15,9.65v1.1c-3.3.18-7.36,1.89-7.36,4.68,0,2.35,2.22,3,3.91,3a7,7,0,0,0,3.77-1.35c.19.67.56,1.35,1.49,1.35a6.09,6.09,0,0,0,2.56-.86V16.9C13.06,16.94,12.86,17,12.45,17ZM9.17,15.61a4.27,4.27,0,0,1-2.52,1.2c-1,0-1.9-.38-1.9-1.78,0-1.85,2.34-2.93,4.42-3Z"/></svg>