<svg id="레이어_1" data-name="레이어 1" xmlns="http://www.w3.org/2000/svg" viewBox="0 0 95.97 23.44"><defs><style>.cls-1{fill:#231815;}</style></defs><title>-대지 2</title><path class="cls-1" d="M18.72,9l-1.9,3.12h-.28L14.63,9Zm-2.18,7h.28l1.9,3.13H14.63Z"/><path class="cls-1" d="M27.44,10.2a2.31,2.31,0,0,0-1.39-.39A2.89,2.89,0,0,0,25,10a1.69,1.69,0,0,0-.72.5,1.07,1.07,0,0,0-.27.71,1,1,0,0,0,.4.8,3.1,3.1,0,0,0,1.27.53l2,.43a5,5,0,0,1,2.46,1.14,2.7,2.7,0,0,1,.82,2,3.25,3.25,0,0,1-.61,1.94,4,4,0,0,1-1.74,1.31,6.71,6.71,0,0,1-2.63.48,7,7,0,0,1-2.55-.42,4,4,0,0,1-1.71-1.22,3.83,3.83,0,0,1-.77-1.91h2.79a1.61,1.61,0,0,0,.7,1.11,2.63,2.63,0,0,0,1.53.36,3.46,3.46,0,0,0,1.16-.16,1.7,1.7,0,0,0,.76-.49,1.08,1.08,0,0,0,.27-.75,1,1,0,0,0-.41-.84A3.21,3.21,0,0,0,26.46,15l-1.89-.38a4.85,4.85,0,0,1-2.45-1.17,2.82,2.82,0,0,1-.84-2.08,3.14,3.14,0,0,1,.58-1.89,3.81,3.81,0,0,1,1.66-1.26A6.63,6.63,0,0,1,26,7.77a6.12,6.12,0,0,1,2.4.43A3.68,3.68,0,0,1,30,9.41a3.58,3.58,0,0,1,.69,1.84h-2.6A1.61,1.61,0,0,0,27.44,10.2Z"/><path class="cls-1" d="M35.18,19.08a5,5,0,0,1-2-2.13,7,7,0,0,1-.67-3.14,7,7,0,0,1,.69-3.15,5.15,5.15,0,0,1,2-2.13,5.59,5.59,0,0,1,2.95-.76,6,6,0,0,1,2.51.51,4.17,4.17,0,0,1,1.76,1.47A4.38,4.38,0,0,1,43.16,12H40.55a2.87,2.87,0,0,0-.42-1,2.19,2.19,0,0,0-.81-.7A2.27,2.27,0,0,0,38.19,10a2.56,2.56,0,0,0-1.5.45,3,3,0,0,0-1,1.32,5.17,5.17,0,0,0-.36,2,5.33,5.33,0,0,0,.35,2.05,3,3,0,0,0,1,1.33,2.57,2.57,0,0,0,1.51.46,2.5,2.5,0,0,0,1.1-.24,2.23,2.23,0,0,0,.82-.67,2.61,2.61,0,0,0,.44-1.06h2.61a4.5,4.5,0,0,1-.73,2.19,4.2,4.2,0,0,1-1.73,1.49,5.81,5.81,0,0,1-2.53.53A5.66,5.66,0,0,1,35.18,19.08Z"/><path class="cls-1" d="M47.39,19.11a5,5,0,0,1-2-2.09,7,7,0,0,1-.69-3.18,6.89,6.89,0,0,1,.7-3.18,5.16,5.16,0,0,1,1.94-2.14,5.53,5.53,0,0,1,2.91-.75A5.62,5.62,0,0,1,53,8.41a4.6,4.6,0,0,1,1.92,2,6.81,6.81,0,0,1,.72,3.29v.86H46V12.66H53a3.13,3.13,0,0,0-.34-1.42,2.34,2.34,0,0,0-.94-1,2.67,2.67,0,0,0-1.39-.36,2.84,2.84,0,0,0-1.49.4,2.78,2.78,0,0,0-1,1.07,3.08,3.08,0,0,0-.37,1.47v1.59a3.81,3.81,0,0,0,.37,1.76,2.65,2.65,0,0,0,1,1.12,3,3,0,0,0,1.58.4,3.12,3.12,0,0,0,1-.17,2.45,2.45,0,0,0,.8-.43,2,2,0,0,0,.51-.62H55.5a4.2,4.2,0,0,1-.93,1.77,4.42,4.42,0,0,1-1.75,1.17,6.67,6.67,0,0,1-2.4.41A6.09,6.09,0,0,1,47.39,19.11Z"/><path class="cls-1" d="M60.48,19.61H57.75V7.92h2.61v2h.13a3.26,3.26,0,0,1,1.32-1.56A3.94,3.94,0,0,1,64,7.77a4.24,4.24,0,0,1,2.12.51,3.44,3.44,0,0,1,1.38,1.51A5.25,5.25,0,0,1,68,12.16v7.45H65.24v-7A3,3,0,0,0,65,11.25a1.89,1.89,0,0,0-.79-.86,2.37,2.37,0,0,0-1.22-.3,2.57,2.57,0,0,0-1.29.31,2.12,2.12,0,0,0-.88.92,3.17,3.17,0,0,0-.31,1.43Z"/><path class="cls-1" d="M76.42,10H69.73V7.92h6.69ZM74.13,5.12v11a1.88,1.88,0,0,0,.16.83,1,1,0,0,0,.44.41,1.62,1.62,0,0,0,.66.12h.39l.46,0,.35,0v2.24a9.12,9.12,0,0,1-1.55.12,4.69,4.69,0,0,1-1.89-.36,3,3,0,0,1-1.3-1.07,3.25,3.25,0,0,1-.46-1.8V5.12Z"/><path class="cls-1" d="M79.13,6.05a1.64,1.64,0,0,1-.57-.54,1.29,1.29,0,0,1-.22-.74A1.37,1.37,0,0,1,78.56,4a1.46,1.46,0,0,1,.57-.53,1.68,1.68,0,0,1,1.59,0,1.58,1.58,0,0,1,.59.53,1.46,1.46,0,0,1,.22.76,1.37,1.37,0,0,1-.22.74,1.8,1.8,0,0,1-.59.54,1.68,1.68,0,0,1-1.59,0Zm-.56,1.87H81.3V19.61H78.57Z"/><path class="cls-1" d="M86.05,19.08a5,5,0,0,1-2-2.13,7.14,7.14,0,0,1-.67-3.14,7,7,0,0,1,.69-3.15,5.15,5.15,0,0,1,1.95-2.13,5.61,5.61,0,0,1,3-.76,6,6,0,0,1,2.51.51A4.19,4.19,0,0,1,93.3,9.75,4.37,4.37,0,0,1,94,12H91.42a2.55,2.55,0,0,0-.42-1,2.24,2.24,0,0,0-.8-.7A2.34,2.34,0,0,0,89.06,10a2.52,2.52,0,0,0-1.49.45,3,3,0,0,0-1,1.32,5.17,5.17,0,0,0-.36,2,5.53,5.53,0,0,0,.35,2.05,3,3,0,0,0,1,1.33,2.62,2.62,0,0,0,1.51.46,2.5,2.5,0,0,0,1.1-.24,2.23,2.23,0,0,0,.82-.67,2.61,2.61,0,0,0,.44-1.06H94a4.4,4.4,0,0,1-.73,2.19,4.2,4.2,0,0,1-1.73,1.49,5.81,5.81,0,0,1-2.53.53A5.66,5.66,0,0,1,86.05,19.08Z"/><path class="cls-1" d="M11.89,18.52c-.24,0-.37-.06-.37-.51V11.28c0-2.17-1.44-3.36-4.4-3.36C5.27,7.92,2,8.71,2,10.74c0,.76.7,1.19,1.49,1.19a2,2,0,0,0,1.44-.54,1.76,1.76,0,0,1,1.54-2.3,1.93,1.93,0,0,1,2.15,2.1v1.1c-3.3.18-7.36,1.89-7.36,4.68,0,2.34,2.23,3,3.91,3a6.92,6.92,0,0,0,3.77-1.35c.19.68.56,1.35,1.49,1.35A6.12,6.12,0,0,0,13,19.09v-.66C12.5,18.48,12.31,18.5,11.89,18.52ZM8.62,17.15A4.25,4.25,0,0,1,6.1,18.34c-1,0-1.91-.38-1.91-1.77,0-1.85,2.35-2.93,4.43-3Z"/></svg>